<svg id="visual" viewBox="0 0 960 540" width="960" height="540" xmlns="http://www.w3.org/2000/svg" xmlns:xlink="http://www.w3.org/1999/xlink" version="1.1"><path d="M642 540L767 0L960 0L960 540Z" fill="#038373"></path><path d="M517 540L594 0L768 0L643 540Z" fill="#008977"></path><path d="M441 540L546 0L595 0L518 540Z" fill="#00907a"></path><path d="M364 540L421 0L547 0L442 540Z" fill="#00977d"></path><path d="M316 540L412 0L422 0L365 540Z" fill="#009d80"></path><path d="M210 540L201 0L413 0L317 540Z" fill="#00a483"></path><path d="M210 540L172 0L202 0L211 540Z" fill="#00aa85"></path><path d="M191 540L153 0L173 0L211 540Z" fill="#00b187"></path><path d="M133 540L143 0L154 0L192 540Z" fill="#00b889"></path><path d="M114 540L95 0L144 0L134 540Z" fill="#00bf8b"></path><path d="M105 540L9 0L96 0L115 540Z" fill="#00c58d"></path><path d="M0 540L0 0L10 0L106 540Z" fill="#00cc8e"></path></svg>